<?xml version="1.0" encoding="UTF-8"?>
<!DOCTYPE svg PUBLIC "-//W3C//DTD SVG 1.1//EN" "http://www.w3.org/Graphics/SVG/1.1/DTD/svg11.dtd">
<!-- Creator: CorelDRAW 2021.5 -->
<svg xmlns="http://www.w3.org/2000/svg" xml:space="preserve" width="226px" height="74px" version="1.1" style="shape-rendering:geometricPrecision; text-rendering:geometricPrecision; image-rendering:optimizeQuality; fill-rule:evenodd; clip-rule:evenodd"
viewBox="0 0 169.11 55.45"
 xmlns:xlink="http://www.w3.org/1999/xlink"
 xmlns:xodm="http://www.corel.com/coreldraw/odm/2003">
 <defs>
  <style type="text/css">
   <![CDATA[
    .str0 {stroke:#373435;stroke-width:0.75;stroke-miterlimit:2.61313}
    .fil2 {fill:#29282F;fill-rule:nonzero}
    .fil0 {fill:#29282F}
    .fil1 {fill:#7853F7}
   ]]>
  </style>
 </defs>
 <g id="Layer_x0020_1">
  <metadata id="CorelCorpID_0Corel-Layer"/>
  <path class="fil0" d="M9.2 6.81l8.75 0c1.74,0 2.26,0.67 2.26,2.96l0 18.71 -13.47 0 0 -18.71c0,-1.91 0.5,-2.96 2.46,-2.96zm-9.06 48.64l-0.14 -8.23 0 -41.16c0,-3.02 0.72,-6.06 5.86,-6.06l16.56 0c1.85,0 4.52,2.9 4.52,5.28l0 23.95 0 5.99 -20.2 0 0 20.2 -6.6 0.03z"/>
  <path class="fil1" d="M20.21 37.53l1.49 -0.07 4.49 0 0.75 0.07 0 8.18c0,0.76 0.79,2.23 1.96,2.23l8.28 0c2.48,0 3.98,0 3.98,-2.25l0 -45.65 6.73 0 0 8.98 0 38.92c0,4.49 -2.24,7.48 -7.48,7.48l-13.47 0c-2.99,0 -6.73,-4.49 -6.73,-5.99l0 -11.9z"/>
  <path class="fil2 str0" d="M74.59 40.87c-3.46,0 -6.05,-0.78 -7.76,-2.33 -1.72,-1.55 -2.62,-3.54 -2.71,-5.98l3.13 0c0.17,1.83 0.93,3.19 2.29,4.07 1.36,0.87 2.99,1.3 4.91,1.3 1.83,0 3.29,-0.37 4.4,-1.12 1.11,-0.74 1.67,-1.76 1.67,-3.04 0,-1.35 -0.58,-2.33 -1.73,-2.95 -1.15,-0.61 -3.13,-1.22 -5.94,-1.81 -2.8,-0.6 -4.82,-1.43 -6.04,-2.5 -1.22,-1.05 -1.84,-2.47 -1.84,-4.23 0,-1.99 0.8,-3.62 2.39,-4.89 1.59,-1.27 3.7,-1.91 6.34,-1.91 2.77,0 5,0.64 6.7,1.93 1.7,1.28 2.59,3.1 2.7,5.44l-3.17 0c-0.32,-2.97 -2.36,-4.45 -6.09,-4.45 -1.82,0 -3.22,0.33 -4.21,1.01 -0.99,0.68 -1.49,1.59 -1.49,2.72 0,1.03 0.4,1.79 1.2,2.31 0.8,0.51 2.29,1.01 4.47,1.49 2.18,0.48 3.91,0.96 5.2,1.42 1.29,0.47 2.38,1.2 3.3,2.19 0.91,0.99 1.37,2.31 1.37,3.98 0,2.11 -0.84,3.86 -2.52,5.26 -1.68,1.39 -3.87,2.09 -6.57,2.09zm20.47 -0.39c-0.7,0.14 -1.45,0.2 -2.26,0.2 -1.3,0 -2.25,-0.23 -2.85,-0.69 -0.6,-0.46 -0.98,-1.06 -1.12,-1.79 -0.15,-0.72 -0.22,-1.71 -0.22,-2.96l0 -10.08 -2.19 0 0 -2.48 2.19 0 0 -4.42 3.15 0 0 4.42 2.88 0 0 2.48 -2.88 0 0 10.25c0,1.21 0.16,1.99 0.46,2.32 0.3,0.33 0.73,0.49 1.26,0.49 0.55,0 1.07,-0.04 1.58,-0.13l0 2.39zm17.8 -2.29c-1.57,1.79 -3.35,2.68 -5.31,2.68 -4.01,0 -6.01,-2.19 -6.01,-6.57l0 -11.62 3.16 0 0 11.49c0,1.45 0.26,2.5 0.77,3.13 0.52,0.64 1.36,0.95 2.55,0.95 1.76,0 3.37,-0.94 4.84,-2.84l0 -12.73 3.15 0 0 17.77 -3.15 0 0 -2.26zm20.38 -2.85l0 -8.44c-1.36,-1.44 -2.92,-2.16 -4.67,-2.16 -1.36,0 -2.44,0.59 -3.24,1.75 -0.81,1.16 -1.22,2.9 -1.22,5.22 0,2.18 0.39,3.85 1.15,4.98 0.76,1.13 1.82,1.7 3.17,1.7 1.77,0 3.37,-1.02 4.81,-3.05zm0 2.98c-1.41,1.7 -3.1,2.55 -5.08,2.55 -2.32,0 -4.11,-0.83 -5.39,-2.48 -1.27,-1.65 -1.91,-3.88 -1.91,-6.68 0,-2.9 0.71,-5.21 2.13,-6.89 1.43,-1.69 3.22,-2.54 5.37,-2.54 1.92,0 3.55,0.59 4.88,1.78l0 -8.16 3.15 0 0 24.55 -3.15 0 0 -2.13zm13.97 2.13l-3.17 0 0 -17.77 3.17 0 0 17.77zm0 -21.13l-3.17 0 0 -3.42 3.17 0 0 3.42zm13.18 2.96c2.54,0 4.57,0.82 6.08,2.43 1.5,1.61 2.27,3.91 2.27,6.86 0,2.95 -0.76,5.24 -2.27,6.86 -1.52,1.63 -3.54,2.44 -6.08,2.44 -2.52,0 -4.53,-0.81 -6.05,-2.44 -1.51,-1.62 -2.27,-3.91 -2.27,-6.86 0,-2.95 0.77,-5.25 2.27,-6.86 1.51,-1.61 3.53,-2.43 6.05,-2.43zm0 16.11c1.51,0 2.75,-0.58 3.67,-1.72 0.93,-1.13 1.41,-2.84 1.41,-5.1 0,-2.26 -0.47,-3.97 -1.41,-5.11 -0.93,-1.15 -2.16,-1.72 -3.67,-1.72 -1.5,0 -2.73,0.58 -3.67,1.72 -0.92,1.13 -1.4,2.85 -1.4,5.11 0,2.26 0.48,3.97 1.4,5.1 0.94,1.14 2.17,1.72 3.67,1.72z"/>
 </g>
</svg>
